<?xml version="1.0" encoding="utf-8"?>
<!-- Generator: Adobe Illustrator 19.0.0, SVG Export Plug-In . SVG Version: 6.00 Build 0)  -->
<svg version="1.1" id="Layer_1" xmlns="http://www.w3.org/2000/svg" xmlns:xlink="http://www.w3.org/1999/xlink" x="0px" y="0px"
	 viewBox="0 0 200 61" style="enable-background:new 0 0 200 61;" xml:space="preserve">
<style type="text/css">
	.st0{fill:#211F5D;}
	.st1{fill:#233F94;}
	.st2{fill:url(#XMLID_66_);}
</style>
<g id="XMLID_1_">
	<g id="XMLID_71_">
		<path id="XMLID_166_" class="st0" d="M38.8,43.6h-3.2l-0.1-9.8L30,39.7l-5.6-5.9v9.8H21V24.7l8.9,10.1l9-10V43.6z"/>
		<path id="XMLID_163_" class="st0" d="M53.5,38c0,1.7-0.6,3.1-1.9,4.2c-1.3,1.1-2.8,1.7-4.5,1.7c-1.7,0-3.2-0.6-4.4-1.7
			c-1.3-1.2-2-2.6-2-4.3c0-1.7,0.6-3.2,1.9-4.3c1.2-1.1,2.7-1.7,4.5-1.7c1.7,0,3.2,0.6,4.5,1.7C52.8,34.8,53.5,36.2,53.5,38z
			 M50.4,38c0-0.9-0.3-1.7-1-2.3c-0.6-0.6-1.4-0.9-2.3-0.9s-1.7,0.3-2.4,0.9c-0.7,0.6-1,1.4-1,2.3c0,0.9,0.4,1.6,1.1,2.2
			c0.7,0.6,1.4,0.9,2.3,0.9c0.9,0,1.7-0.3,2.3-0.9C50,39.6,50.4,38.8,50.4,38z"/>
		<path id="XMLID_160_" class="st0" d="M67.6,38c0,1.7-0.6,3.1-1.9,4.2c-1.3,1.1-2.8,1.7-4.5,1.7c-1.7,0-3.2-0.6-4.4-1.7
			c-1.3-1.2-2-2.6-2-4.3c0-1.7,0.6-3.2,1.9-4.3c1.2-1.1,2.7-1.7,4.5-1.7c1.7,0,3.2,0.6,4.5,1.7C67,34.8,67.6,36.2,67.6,38z M64.5,38
			c0-0.9-0.3-1.7-1-2.3c-0.6-0.6-1.4-0.9-2.3-0.9c-0.9,0-1.7,0.3-2.4,0.9c-0.7,0.6-1,1.4-1,2.3c0,0.9,0.4,1.6,1.1,2.2
			c0.7,0.6,1.4,0.9,2.3,0.9c0.9,0,1.7-0.3,2.3-0.9C64.2,39.6,64.5,38.8,64.5,38z"/>
		<path id="XMLID_158_" class="st0" d="M79.7,43.5h-3.1v-6.7c0-0.8-0.1-1.4-0.3-1.7c-0.3-0.3-0.8-0.5-1.6-0.5
			c-1.5,0-2.3,0.9-2.3,2.8v6.1h-3.1V32.2l1.6,1.4c0.9-1,2.1-1.6,3.6-1.7c3.4,0,5.2,1.6,5.2,4.9V43.5z"/>
		<path id="XMLID_156_" class="st0" d="M84.9,43.5h-3.1v-18h3L84.9,43.5z"/>
		<rect id="XMLID_54_" x="87.5" y="31.9" class="st0" width="3.1" height="11.6"/>
		<path id="XMLID_152_" class="st0" d="M105.1,43.4c0,4.4-1.9,6.6-5.8,6.6c-1.6-0.2-2.7-0.4-3.4-0.7c-0.6-0.3-1.4-0.7-2.3-1.3
			l1.5-2.1c0.8,0.5,1.4,0.9,2,1c0.5,0.1,1.3,0.2,2.4,0.2c1-0.2,1.7-0.7,2.2-1.4c0.3-0.6,0.4-1.5,0.3-2.8c-0.8,0.8-1.9,1.2-3.5,1.2
			c-1.7,0-3.1-0.6-4.2-1.9c-1-1.2-1.5-2.7-1.5-4.5c0-1.6,0.5-3,1.6-4.1c1.1-1.1,2.4-1.7,4-1.7c1.8-0.1,3.4,0.4,5,1.6l1.6-1.3V43.4z
			 M102.1,38c0-0.9-0.3-1.7-0.8-2.3c-0.6-0.7-1.3-1-2.2-1c-0.9,0-1.7,0.3-2.2,0.9C96.3,36.2,96,37,96,38c0,1,0.2,1.8,0.7,2.4
			c0.6,0.7,1.3,1.1,2.2,1.1c1,0,1.8-0.3,2.3-1C101.9,39.8,102.1,39,102.1,38z"/>
		<path id="XMLID_150_" class="st0" d="M117.4,43.5h-3.1v-7.2c0-0.8-0.2-1.3-0.5-1.6c-0.3-0.3-0.9-0.4-1.7-0.4c-1.4,0-2.1,1-2.1,2.9
			v6.3H107l0-18.1h3.1v7c0.7-0.6,1.7-0.9,3-0.9c2.9,0,4.4,1.6,4.4,4.8V43.5z"/>
		<path id="XMLID_148_" class="st0" d="M126.1,34.8H124v8.7h-3.1v-8.7l-1.6,0l1.6-2.8v-4h3.1v4h2.1V34.8z"/>
		<path id="XMLID_145_" class="st0" d="M147.4,34.5c0,2.6-1,4.9-2.9,6.7s-4.3,2.8-6.9,2.8c-2.7,0-5-0.9-6.9-2.7
			c-1.9-1.8-2.9-4.1-2.9-6.7c0-2.6,1-4.9,3-6.7c1.9-1.8,4.2-2.7,6.9-2.7c2.7,0,5,0.9,6.9,2.7C146.4,29.6,147.4,31.8,147.4,34.5z
			 M144.2,34.5c0-1.8-0.6-3.4-1.9-4.6c-1.3-1.3-2.9-1.9-4.7-1.9c-1.8,0-3.4,0.6-4.7,1.9c-1.3,1.2-1.9,2.8-1.9,4.6
			c0,1.8,0.7,3.3,2,4.6c1.3,1.3,2.9,1.9,4.7,1.9c1.8,0,3.4-0.6,4.7-1.9C143.5,37.8,144.2,36.3,144.2,34.5z"/>
		<path id="XMLID_143_" class="st0" d="M155.4,31.4l0,3.3c-2.3,0.4-3.4,1.4-3.3,3.1v5.7H149V32.2l1.4,1.4
			C151.7,32.5,153.4,31.8,155.4,31.4z"/>
		<path id="XMLID_141_" class="st0" d="M164.1,34.8H162v8.7h-3.1v-8.7l-1.6,0l1.6-2.8v-4h3.1v4h2.1V34.8z"/>
		<path id="XMLID_139_" class="st0" d="M176.4,43.5h-3.1v-7.2c0-0.8-0.2-1.3-0.5-1.6c-0.3-0.3-0.9-0.4-1.7-0.4c-1.4,0-2.1,1-2.1,2.9
			v6.3H166l0-18.1h3.1v7c0.7-0.6,1.7-0.9,3-0.9c2.9,0,4.4,1.6,4.4,4.8V43.5z"/>
		<path id="XMLID_136_" class="st0" d="M190.9,38c0,1.7-0.6,3.1-1.9,4.2c-1.3,1.1-2.8,1.7-4.5,1.7c-1.7,0-3.2-0.6-4.4-1.7
			c-1.3-1.2-2-2.6-2-4.3c0-1.7,0.6-3.2,1.9-4.3c1.2-1.1,2.7-1.7,4.5-1.7c1.7,0,3.2,0.6,4.5,1.7C190.2,34.8,190.9,36.2,190.9,38z
			 M187.8,38c0-0.9-0.3-1.7-1-2.3c-0.6-0.6-1.4-0.9-2.3-0.9c-0.9,0-1.7,0.3-2.4,0.9c-0.7,0.6-1,1.4-1,2.3c0,0.9,0.4,1.6,1.1,2.2
			c0.7,0.6,1.4,0.9,2.3,0.9c0.9,0,1.7-0.3,2.3-0.9C187.4,39.6,187.8,38.8,187.8,38z"/>
		<polygon id="XMLID_42_" class="st1" points="89,20.9 90,23.8 93.1,23.8 90.6,25.7 91.6,28.7 89,26.8 86.5,28.7 87.5,25.7 
			84.9,23.8 88.1,23.8 		"/>
		<polygon id="XMLID_41_" class="st1" points="97.2,6.1 99,11.7 105,11.7 100.2,15.2 102,20.8 97.2,17.3 92.4,20.8 94.3,15.2 
			89.5,11.7 95.4,11.7 		"/>
		<polygon id="XMLID_40_" class="st1" points="83.4,13.2 84.2,15.6 86.8,15.6 84.7,17.2 85.5,19.7 83.4,18.1 81.2,19.7 82,17.2 
			79.9,15.6 82.5,15.6 		"/>
		<polygon id="XMLID_39_" class="st1" points="87.5,4.4 88.1,6.3 90,6.3 88.4,7.4 89,9.2 87.5,8.1 85.9,9.2 86.5,7.4 84.9,6.3 
			86.9,6.3 		"/>
		<linearGradient id="XMLID_66_" gradientUnits="userSpaceOnUse" x1="20.2101" y1="41.1945" x2="10.8937" y2="54.5037">
			<stop  offset="0" style="stop-color:#28A8E0"/>
			<stop  offset="1" style="stop-color:#211F5D"/>
		</linearGradient>
		<path id="XMLID_38_" class="st2" d="M27.4,52.4C15.9,51,7.7,40.5,9.1,29c0.5-4.3,2.3-8.1,4.9-11.2C8,20.9,3.5,26.8,2.6,34
			C1.2,45.6,9.4,56,20.9,57.5c7.2,0.9,14.1-2,18.5-7.2C35.8,52.1,31.7,52.9,27.4,52.4z"/>
		<g id="XMLID_72_">
			<path id="XMLID_128_" class="st1" d="M111.2,49.7c0,1.3-0.8,2.1-1.8,2.1c-1,0-1.8-0.8-1.8-2c0-1.2,0.8-2.1,1.8-2.1
				C110.5,47.7,111.2,48.5,111.2,49.7z M108.2,49.7c0,0.8,0.5,1.6,1.2,1.6c0.8,0,1.3-0.7,1.3-1.6c0-0.8-0.4-1.6-1.2-1.6
				C108.6,48.1,108.2,48.9,108.2,49.7z"/>
			<path id="XMLID_125_" class="st1" d="M111.9,47.8c0.3-0.1,0.6-0.1,1-0.1c0.5,0,0.9,0.1,1.1,0.3c0.2,0.2,0.3,0.4,0.3,0.7
				c0,0.5-0.3,0.9-0.7,1v0c0.3,0.1,0.5,0.4,0.6,0.8c0.1,0.5,0.2,0.9,0.3,1.1h-0.5c-0.1-0.1-0.2-0.4-0.3-0.9
				c-0.1-0.5-0.3-0.7-0.8-0.8h-0.5v1.7h-0.5V47.8z M112.4,49.6h0.5c0.5,0,0.9-0.3,0.9-0.7c0-0.5-0.4-0.7-0.9-0.7c-0.2,0-0.4,0-0.5,0
				V49.6z"/>
			<path id="XMLID_123_" class="st1" d="M115.8,48.2h-1.2v-0.4h2.9v0.4h-1.2v3.5h-0.5V48.2z"/>
			<path id="XMLID_121_" class="st1" d="M118.4,47.8v1.6h1.9v-1.6h0.5v3.9h-0.5v-1.8h-1.9v1.8h-0.5v-3.9H118.4z"/>
			<path id="XMLID_118_" class="st1" d="M125,49.7c0,1.3-0.8,2.1-1.8,2.1c-1,0-1.8-0.8-1.8-2c0-1.2,0.8-2.1,1.8-2.1
				C124.4,47.7,125,48.5,125,49.7z M122,49.7c0,0.8,0.5,1.6,1.2,1.6c0.8,0,1.3-0.7,1.3-1.6c0-0.8-0.4-1.6-1.2-1.6
				C122.4,48.1,122,48.9,122,49.7z"/>
			<path id="XMLID_115_" class="st1" d="M125.7,47.8c0.2,0,0.6-0.1,1-0.1c0.5,0,0.9,0.1,1.1,0.3c0.2,0.2,0.3,0.5,0.3,0.8
				c0,0.4-0.1,0.6-0.3,0.8c-0.3,0.3-0.7,0.4-1.2,0.4c-0.2,0-0.3,0-0.4,0v1.6h-0.5V47.8z M126.2,49.7c0.1,0,0.2,0,0.4,0
				c0.6,0,1-0.3,1-0.8c0-0.5-0.4-0.8-0.9-0.8c-0.2,0-0.4,0-0.5,0V49.7z"/>
			<path id="XMLID_113_" class="st1" d="M130.8,49.8h-1.5v1.4h1.7v0.4h-2.2v-3.9h2.1v0.4h-1.6v1.2h1.5V49.8z"/>
			<path id="XMLID_110_" class="st1" d="M131.6,47.8c0.3,0,0.7-0.1,1.1-0.1c0.7,0,1.2,0.2,1.6,0.5c0.3,0.3,0.6,0.8,0.6,1.4
				c0,0.6-0.2,1.2-0.6,1.5c-0.4,0.4-1,0.6-1.7,0.6c-0.4,0-0.7,0-0.9,0V47.8z M132.1,51.3c0.1,0,0.3,0,0.5,0c1.1,0,1.7-0.6,1.7-1.7
				c0-0.9-0.5-1.5-1.6-1.5c-0.3,0-0.5,0-0.6,0.1V51.3z"/>
			<path id="XMLID_108_" class="st1" d="M136,47.8v3.9h-0.5v-3.9H136z"/>
			<path id="XMLID_106_" class="st1" d="M139.6,51.5c-0.2,0.1-0.6,0.2-1,0.2c-1.1,0-1.9-0.7-1.9-2c0-1.2,0.8-2.1,2-2.1
				c0.5,0,0.8,0.1,0.9,0.2l-0.1,0.4c-0.2-0.1-0.5-0.2-0.8-0.2c-0.9,0-1.5,0.6-1.5,1.6c0,1,0.6,1.6,1.5,1.6c0.3,0,0.6-0.1,0.8-0.2
				L139.6,51.5z"/>
			<path id="XMLID_104_" class="st1" d="M141.4,51.1c0.2,0.1,0.6,0.3,0.9,0.3c0.5,0,0.8-0.3,0.8-0.7c0-0.4-0.2-0.6-0.7-0.8
				c-0.6-0.2-1-0.6-1-1.1c0-0.6,0.5-1.1,1.3-1.1c0.4,0,0.7,0.1,0.9,0.2l-0.1,0.4c-0.1-0.1-0.4-0.2-0.7-0.2c-0.5,0-0.7,0.3-0.7,0.6
				c0,0.4,0.2,0.5,0.8,0.8c0.7,0.3,1,0.6,1,1.1c0,0.6-0.4,1.1-1.4,1.1c-0.4,0-0.8-0.1-1-0.2L141.4,51.1z"/>
			<path id="XMLID_102_" class="st1" d="M144.8,47.8v2.3c0,0.9,0.4,1.2,0.9,1.2c0.6,0,0.9-0.4,0.9-1.2v-2.3h0.5V50
				c0,1.2-0.6,1.7-1.5,1.7c-0.8,0-1.4-0.5-1.4-1.7v-2.3H144.8z"/>
			<path id="XMLID_99_" class="st1" d="M148.1,47.8c0.3-0.1,0.6-0.1,1-0.1c0.5,0,0.9,0.1,1.1,0.3c0.2,0.2,0.3,0.4,0.3,0.7
				c0,0.5-0.3,0.9-0.7,1v0c0.3,0.1,0.5,0.4,0.6,0.8c0.1,0.5,0.2,0.9,0.3,1.1h-0.5c-0.1-0.1-0.2-0.4-0.3-0.9
				c-0.1-0.5-0.3-0.7-0.8-0.8h-0.5v1.7h-0.5V47.8z M148.6,49.6h0.5c0.5,0,0.9-0.3,0.9-0.7c0-0.5-0.4-0.7-0.9-0.7c-0.2,0-0.4,0-0.5,0
				V49.6z"/>
			<path id="XMLID_97_" class="st1" d="M154.2,51.5c-0.2,0.1-0.7,0.2-1.2,0.2c-0.6,0-1.1-0.2-1.5-0.5c-0.3-0.3-0.5-0.8-0.5-1.5
				c0-1.2,0.8-2,2.1-2c0.5,0,0.8,0.1,1,0.2l-0.1,0.4c-0.2-0.1-0.5-0.2-0.9-0.2c-1,0-1.6,0.6-1.6,1.6c0,1,0.6,1.6,1.5,1.6
				c0.3,0,0.6,0,0.7-0.1V50h-0.8v-0.4h1.3V51.5z"/>
			<path id="XMLID_95_" class="st1" d="M157,49.8h-1.5v1.4h1.7v0.4h-2.2v-3.9h2.1v0.4h-1.6v1.2h1.5V49.8z"/>
			<path id="XMLID_92_" class="st1" d="M161.1,49.7c0,1.3-0.8,2.1-1.8,2.1c-1,0-1.8-0.8-1.8-2c0-1.2,0.8-2.1,1.8-2.1
				C160.4,47.7,161.1,48.5,161.1,49.7z M158.1,49.7c0,0.8,0.5,1.6,1.2,1.6c0.8,0,1.3-0.7,1.3-1.6c0-0.8-0.4-1.6-1.2-1.6
				C158.5,48.1,158.1,48.9,158.1,49.7z"/>
			<path id="XMLID_90_" class="st1" d="M161.8,51.7v-3.9h0.6l1.3,2c0.3,0.5,0.5,0.9,0.7,1.3l0,0c0-0.5-0.1-1-0.1-1.6v-1.6h0.5v3.9
				h-0.5l-1.2-2c-0.3-0.4-0.5-0.9-0.7-1.3l0,0c0,0.5,0,1,0,1.6v1.7H161.8z"/>
			<path id="XMLID_88_" class="st1" d="M165.5,51.1c0.2,0.1,0.6,0.3,0.9,0.3c0.5,0,0.8-0.3,0.8-0.7c0-0.4-0.2-0.6-0.7-0.8
				c-0.6-0.2-1-0.6-1-1.1c0-0.6,0.5-1.1,1.3-1.1c0.4,0,0.7,0.1,0.9,0.2l-0.1,0.4c-0.1-0.1-0.4-0.2-0.7-0.2c-0.5,0-0.7,0.3-0.7,0.6
				c0,0.4,0.2,0.5,0.8,0.8c0.7,0.3,1,0.6,1,1.1c0,0.6-0.4,1.1-1.4,1.1c-0.4,0-0.8-0.1-1-0.2L165.5,51.1z"/>
			<path id="XMLID_86_" class="st1" d="M168.3,51.4c0-0.2,0.1-0.4,0.3-0.4c0.2,0,0.3,0.2,0.3,0.4c0,0.2-0.1,0.4-0.3,0.4
				C168.5,51.7,168.3,51.6,168.3,51.4z"/>
			<path id="XMLID_83_" class="st1" d="M174.2,49.7c0,1.3-0.8,2.1-1.8,2.1c-1,0-1.8-0.8-1.8-2c0-1.2,0.8-2.1,1.8-2.1
				C173.5,47.7,174.2,48.5,174.2,49.7z M171.2,49.7c0,0.8,0.5,1.6,1.2,1.6c0.8,0,1.3-0.7,1.3-1.6c0-0.8-0.4-1.6-1.2-1.6
				C171.6,48.1,171.2,48.9,171.2,49.7z"/>
			<path id="XMLID_81_" class="st1" d="M174.9,51.7v-3.9h0.6l1.3,2c0.3,0.5,0.5,0.9,0.7,1.3l0,0c0-0.5-0.1-1-0.1-1.6v-1.6h0.5v3.9
				h-0.5l-1.2-2c-0.3-0.4-0.5-0.9-0.7-1.3l0,0c0,0.5,0,1,0,1.6v1.7H174.9z"/>
			<path id="XMLID_79_" class="st1" d="M178.7,47.8h0.5v3.5h1.7v0.4h-2.2V47.8z"/>
			<path id="XMLID_77_" class="st1" d="M181.9,47.8v3.9h-0.5v-3.9H181.9z"/>
			<path id="XMLID_75_" class="st1" d="M182.8,51.7v-3.9h0.6l1.3,2c0.3,0.5,0.5,0.9,0.7,1.3l0,0c0-0.5-0.1-1-0.1-1.6v-1.6h0.5v3.9
				h-0.5l-1.2-2c-0.3-0.4-0.5-0.9-0.7-1.3l0,0c0,0.5,0,1,0,1.6v1.7H182.8z"/>
			<path id="XMLID_73_" class="st1" d="M188.6,49.8h-1.5v1.4h1.7v0.4h-2.2v-3.9h2.1v0.4h-1.6v1.2h1.5V49.8z"/>
		</g>
	</g>
	<g id="XMLID_2_">
		<path id="XMLID_68_" class="st0" d="M197.7,41.2c0,0.1,0,0.1,0,0.2c-0.1,0.6-0.3,1.1-0.7,1.6c-0.4,0.5-1,0.7-1.6,0.8
			c-1.5,0.2-2.8-0.8-3.1-2.2c-0.3-1.5,0.7-3,2.2-3.3c0.1,0,0.3,0,0.4-0.1c0,0,0,0,0,0c0.1,0,0.2,0,0.3,0c0,0,0.1,0,0.1,0
			c0.5,0,1,0.2,1.4,0.5c0.6,0.5,1,1.1,1.1,1.9c0,0.1,0,0.2,0,0.2C197.7,41,197.7,41.1,197.7,41.2z M194.9,43.6
			c1.4,0,2.5-1.1,2.5-2.5c0-1.4-1.1-2.5-2.5-2.5c-1.4,0-2.5,1.1-2.5,2.5C192.4,42.5,193.5,43.6,194.9,43.6z"/>
		<path id="XMLID_65_" class="st0" d="M193.7,39.4C193.7,39.4,193.7,39.4,193.7,39.4c0.5,0,0.9,0,1.3,0c0.2,0,0.4,0,0.6,0.1
			c0.3,0.1,0.5,0.4,0.5,0.7c0,0.3,0,0.5-0.2,0.7c-0.1,0.2-0.3,0.3-0.5,0.3c0,0,0,0,0,0c0,0,0,0,0,0c0.1,0,0.2,0.1,0.3,0.2
			c0.1,0.1,0.2,0.3,0.3,0.4c0.2,0.3,0.4,0.6,0.5,0.8c0,0,0,0,0,0c-0.3,0-0.6,0-0.9,0c0,0,0-0.1-0.1-0.1c-0.2-0.3-0.3-0.5-0.5-0.8
			c-0.1-0.1-0.1-0.2-0.2-0.3c-0.1-0.1-0.1-0.1-0.2-0.1c-0.1,0-0.2,0-0.2,0c0,0.4,0,0.9,0,1.3c-0.3,0-0.5,0-0.8,0
			C193.7,41.6,193.7,40.5,193.7,39.4z M194.4,40.9c0.1,0,0.3,0,0.4,0c0.3,0,0.5-0.2,0.5-0.5c0-0.2-0.1-0.3-0.2-0.3c0,0-0.1,0-0.1,0
			c-0.1,0-0.2,0-0.3,0c-0.1,0-0.1,0-0.2,0C194.4,40.3,194.4,40.6,194.4,40.9z"/>
	</g>
</g>
</svg>
